# xmcd
#
# Track frame offsets:
#	150
#	13644
#	22844
#	36629
#	52197
#	70549
#	86097
#	99433
#	117018
#	128994
#	149601
#	162765
#
# Disc length: 2461 seconds
#
# Revision: 1
# Processed by: cddbd v1.5.2PL0 Copyright (c) Steve Scherf et al.
# Submitted via: audiograbber 1.83.01
#
DISCID=9f099b0c
DTITLE=The Cashmen - The Johnny Cash Harboursound
DYEAR=2010
DGENRE=Country
TTITLE0=The Kneeling Drunkard´s Plea
TTITLE1=Wreck Of The Old ´97
TTITLE2=16 Tons
TTITLE3=Personal Jesus
TTITLE4=One
TTITLE5=Ring Of Fire
TTITLE6=Wrinkled Crinkled Dollar Bill
TTITLE7=Redemption
TTITLE8=Blistered
TTITLE9=Hurt
TTITLE10=Cry! Cry! Cry!
TTITLE11=If You Could Read My Mind
EXTD=
EXTT0=
EXTT1=
EXTT2=
EXTT3=
EXTT4=
EXTT5=
EXTT6=
EXTT7=
EXTT8=
EXTT9=
EXTT10=
EXTT11=
PLAYORDER=
